Coordinates
version=1
nRows=14
nColumns=40
inDegrees=yes

Units are S.I. units (second, meters, Newtons, ...)
Angles are in degrees.

endheader
time	pelvis_tilt	pelvis_list	pelvis_rotation	pelvis_tx	pelvis_ty	pelvis_tz	hip_flexion_r	hip_adduction_r	hip_rotation_r	knee_angle_r	knee_angle_r_beta	ankle_angle_r	subtalar_angle_r	mtp_angle_r	hip_flexion_l	hip_adduction_l	hip_rotation_l	knee_angle_l	knee_angle_l_beta	ankle_angle_l	subtalar_angle_l	mtp_angle_l	lumbar_extension	lumbar_bending	lumbar_rotation	arm_flex_r	arm_add_r	arm_rot_r	elbow_flex_r	pro_sup_r	wrist_flex_r	wrist_dev_r	arm_flex_l	arm_add_l	arm_rot_l	elbow_flex_l	pro_sup_l	wrist_flex_l	wrist_dev_l
     54.11000000	     -5.91354933	     -3.61838647	     -0.17526578	      0.90090247	      0.91536345	      0.44824370	     16.67915373	     -7.84683725	     -6.53633588	     58.81279803	     58.81279803	      0.91343079	    -18.24184829	      3.74936474	     22.95331969	     -1.23532243	      1.45795586	     31.71885682	     31.71885682	     17.21617405	    -16.61649903	      8.74035938	     -9.09937768	      4.45969555	      2.80179373	     29.92504334	    -12.15345592	    -10.31237324	     36.24640085	     45.51295276	      0.00000000	      0.00000000	     18.70485593	    -13.21917235	     13.63231357	     30.87748247	     45.21223374	      0.00000000	      0.00000000
     54.12885714	     -5.57483931	     -3.75109191	     -0.64018827	      0.90047070	      0.91414520	      0.44694268	     18.50666957	     -7.63562902	     -5.75070316	     61.32016542	     61.32016542	      1.56158139	    -18.70139201	      4.16007152	     22.56456143	     -1.28483621	      1.46507529	     32.52630140	     32.52630140	     17.83007085	    -17.28127604	      8.54197943	     -9.33497965	      4.82599437	      2.73803011	     26.45533944	    -12.23361459	    -10.38124337	     34.49845660	     45.57244943	      0.00000000	      0.00000000	     19.91769998	    -13.56021415	     13.21905348	     32.04864613	     45.29394381	      0.00000000	      0.00000000
     54.14771429	     -5.28098331	     -3.85498224	     -1.15549058	      0.89997227	      0.91281928	      0.44579373	     20.40460193	     -7.36240505	     -4.93871835	     63.64361274	     63.64361274	      2.57376214	    -18.97894341	      5.46279816	     22.21214815	     -1.34359943	      1.32595984	     33.34743207	     33.34743207	     18.63543874	    -17.72461008	      8.53702445	     -9.58245951	      5.14759065	      2.77153978	     22.97402807	    -12.37201262	    -10.50374577	     32.37931081	     45.65160683	      0.00000000	      0.00000000	     21.19347449	    -13.90603293	     12.69978482	     33.30500841	     45.39053135	      0.00000000	      0.00000000
     54.16657143	     -4.91956264	     -4.01176255	     -1.66277315	      0.89947877	      0.91174545	      0.44487990	     22.30322227	     -6.77972969	     -3.97386429	     65.82218754	     65.82218754	      5.04878302	    -19.00545986	     11.59539658	     21.79068695	     -1.46326736	      1.22111085	     34.21780924	     34.21780924	     19.86540976	    -17.91243968	      9.77924384	     -9.91089730	      5.55697550	      2.37040053	     20.35173108	    -12.14287035	    -11.32400922	     29.01999437	     45.87489173	      0.00000000	      0.00000000	     22.07239782	    -14.43195721	     11.12727901	     35.06913921	     45.63823527	      0.00000000	      0.00000000
     54.18542857	     -4.61722658	     -4.06711507	     -2.19417032	      0.89905138	      0.91075834	      0.44404633	     23.94331588	     -6.47718167	     -3.37175168	     67.11200354	     67.11200354	      5.85496716	    -19.16196258	     11.84369194	     21.28198076	     -1.51275612	      0.95225248	     34.77980909	     34.77980909	     20.55275517	    -18.15844990	      9.72231960	    -10.18127835	      5.84355213	      2.50366922	     16.93870569	    -12.34527014	    -11.51328051	     27.00382474	     45.95781187	      0.00000000	      0.00000000	     23.43602469	    -14.73992362	     10.57348453	     36.20492147	     45.73415949	      0.00000000	      0.00000000
     54.20428571	     -4.30165392	     -4.14265475	     -2.74665021	      0.89862008	      0.91019654	      0.44356417	     25.43117795	     -6.05300569	     -2.82671323	     67.78819325	     67.78819325	      6.90906315	    -19.24410101	     12.68556048	     20.65372946	     -1.61910572	      0.61318484	     35.15025832	     35.15025832	     21.25072947	    -18.29659431	      9.90722563	    -10.48888634	      6.13992540	      2.70037499	     13.67266239	    -12.53233373	    -11.79230404	     24.89781096	     46.05945896	      0.00000000	      0.00000000	     24.74707717	    -15.04906234	      9.81360690	     37.55407156	     45.85338738	      0.00000000	      0.00000000
     54.22314286	     -4.00086688	     -4.21654996	     -3.24922923	      0.89816993	      0.91010131	      0.44335576	     26.69532405	     -5.61750069	     -2.47232347	     67.68073961	     67.68073961	      7.74365152	    -19.29450579	     12.57673888	     19.89872245	     -1.71084462	      0.34392044	     35.22033147	     35.22033147	     21.72405778	    -18.46854043	      9.85745989	    -10.75554310	      6.48834287	      1.82700988	     10.99317002	    -12.32033673	    -11.88365181	     23.78122513	     46.09324925	      0.00000000	      0.00000000	     25.70696460	    -16.10962285	      9.43946243	     37.93128858	     45.90979446	      0.00000000	      0.00000000
     54.24200000	     -3.86133022	     -4.19301336	     -3.87564319	      0.89756484	      0.91029211	      0.44361764	     28.05987610	     -5.13906876	     -2.01978601	     66.97573220	     66.97573220	      8.75534319	    -19.27320176	     13.29941465	     19.22621836	     -1.79688569	     -0.19122655	     35.11293515	     35.11293515	     22.21000350	    -18.43623935	     10.11703651	    -10.94520887	      6.59711049	      2.75793466	      7.53789512	    -12.64439070	    -12.15630720	     21.67235743	     46.19991620	      0.00000000	      0.00000000	     27.13708387	    -15.99583461	      8.40658522	     40.10118383	     46.06128021	      0.00000000	      0.00000000
     54.26085714	     -3.81616873	     -4.24048495	     -4.39719852	      0.89687253	      0.91093216	      0.44425809	     29.22617066	     -4.55991455	     -1.79641937	     65.45328029	     65.45328029	      9.55638116	    -19.21817561	     13.24546792	     18.54467490	     -1.96833863	     -0.64836551	     34.74808515	     34.74808515	     22.47649152	    -18.38775622	     10.15348913	    -10.93914487	      6.84989284	      2.02033155	      4.98442522	    -12.46124425	    -12.27694634	     20.70339088	     46.23414803	      0.00000000	      0.00000000	     28.05403581	    -17.10153309	      7.89865458	     40.64481117	     46.12877669	      0.00000000	      0.00000000
     54.27971429	     -3.77088646	     -4.30081229	     -4.99839126	      0.89617024	      0.91229258	      0.44530587	     30.11056592	     -3.84204481	     -1.50684154	     63.14391386	     63.14391386	     10.16994714	    -19.12236219	     12.92217404	     17.64433627	     -2.18350355	     -1.17971397	     33.98305554	     33.98305554	     22.53776428	    -18.33961616	     10.27394514	    -11.10163763	      7.03761106	      2.08602823	      2.11531505	    -12.43167868	    -13.53280433	     19.74450826	     46.46333421	      0.00000000	      0.00000000	     28.08730048	    -17.16459460	      4.07539360	     44.92679008	     46.55810925	      0.00000000	      0.00000000
     54.29857143	     -3.74553416	     -4.32505328	     -5.57170866	      0.89542551	      0.91413502	      0.44669265	     30.70959393	     -3.14100289	     -1.26916656	     60.10073244	     60.10073244	     10.54979031	    -18.88975444	     12.15415651	     16.61142203	     -2.36278380	     -1.73338833	     32.91223114	     32.91223114	     22.52211266	    -18.19773589	     10.25739554	    -11.15781390	      7.16733074	      1.98718517	     -0.42614771	    -12.36102352	    -13.86103548	     18.78750717	     46.54304835	      0.00000000	      0.00000000	     29.07209515	    -17.73567961	      3.03240864	     46.24594670	     46.67888177	      0.00000000	      0.00000000
     54.31742857	     -3.96492832	     -4.39362666	     -6.12417356	      0.89449763	      0.91597446	      0.44846065	     31.30639460	     -2.31127087	     -1.01289610	     56.49869308	     56.49869308	     10.91265080	    -18.36546164	     11.75062661	     15.78510397	     -2.61609299	     -2.21434119	     31.71757370	     31.71757370	     22.44420098	    -17.95171991	     10.33897663	    -10.87101945	      7.42041118	      1.57689376	     -2.74342163	    -12.28371245	    -14.03618181	     18.09457395	     46.57871851	      0.00000000	      0.00000000	     29.94705849	    -18.50177656	      2.43557155	     47.14213440	     46.75085251	      0.00000000	      0.00000000
     54.33628571	     -3.98198720	     -4.36142824	     -6.67090747	      0.89370629	      0.91831656	      0.45043999	     31.09337944	     -1.84363134	     -1.08956419	     51.75741572	     51.75741572	      8.76609516	    -18.00074805	      3.56471104	     14.51166272	     -2.78038503	     -2.97059423	     30.02821423	     30.02821423	     21.39684739	    -17.86959351	      8.51513848	    -11.11378023	      7.42192146	      1.32003382	     -5.33830727	    -12.09961653	    -15.74006405	     19.12382465	     46.80939555	      0.00000000	      0.00000000	     29.69733924	    -18.83590232	     -1.48702564	     51.48183054	     47.12987461	      0.00000000	      0.00000000
     54.35514286	     -4.15405841	     -4.38777078	     -7.16958065	      0.89288502	      0.92044985	      0.45272407	     30.89467359	     -1.22399616	     -1.07592325	     46.91223016	     46.91223016	      7.85511911	    -16.89250480	     -0.15250500	     13.44271916	     -3.00164154	     -3.59330176	     28.44953152	     28.44953152	     20.86904230	    -17.57820212	      7.83777147	    -11.00845067	      7.53325424	      1.31995888	     -7.53182437	    -12.00132993	    -16.69521790	     18.91111110	     46.98756725	      0.00000000	      0.00000000	     30.44459187	    -19.27716575	     -2.51597729	     53.43901650	     47.22626023	      0.00000000	      0.00000000
